<svg width="1024" height="301" viewBox="0 0 1024 301" fill="none" xmlns="http://www.w3.org/2000/svg">
<g clip-path="url(#clip0_64_2)">
<path d="M1021.01 106.337C1019.43 106.429 1018.17 106.466 1016.77 106.38C1015.24 106.299 1012.89 106.262 1010.37 106.515C1008.65 106.671 1006.9 106.719 1005.59 106.639C1002.52 106.472 999.323 106.585 996.226 106.703C995 106.746 993.78 106.795 992.56 106.822C990.92 106.859 989.286 106.929 987.646 106.999C985.087 107.112 982.447 107.274 979.888 107.204C977.753 107.193 975.151 107.306 973.055 107.522L972.345 107.586L968.377 107.446C964.2 107.306 960.012 107.172 955.894 106.897C953.313 106.725 950.625 106.698 947.861 106.682C944.905 106.66 941.738 106.493 938.759 106.337L928.206 105.815C927.609 105.75 927.007 105.707 926.373 105.702C926.84 105.212 927.26 104.727 927.706 104.215L939.356 91.5506C942.017 88.6698 944.775 85.6921 947.044 82.7574C947.759 81.8312 948.485 81.1312 949.189 80.4528L949.84 79.812C952.114 77.5342 954.259 75.3911 956.56 72.6772C957.592 71.4765 958.759 70.1195 959.77 69.3495C960.114 69.0964 960.415 68.7464 960.84 68.2456C963.668 65.0041 966.635 61.7571 969.91 58.3109L970.759 57.4116L966.549 53.2277L962.522 56.7278C962.291 56.9216 962.055 57.1262 961.904 57.2932C958.732 60.4378 955.334 63.421 952.05 66.3125C950.641 67.5456 949.238 68.7841 947.851 70.028L945.125 72.4565C942.528 74.7773 939.91 77.1142 937.308 79.3597C934.501 81.7666 931.738 84.3028 928.975 86.8336L919.206 95.7561L918.948 86.2898C918.819 81.632 918.679 76.9581 918.448 72.3111C918.292 68.9403 918.211 65.5694 918.136 62.204C918.061 58.914 917.986 55.6293 917.835 52.3285C917.512 45.3553 917.324 38.2206 917.142 31.3174L916.34 -0.333862H908.98L908.179 31.3174C907.996 38.2206 907.808 45.3553 907.486 52.3285C907.335 55.6239 907.26 58.914 907.185 62.204C907.109 65.5694 907.029 68.9349 906.873 72.3057C906.642 76.9527 906.502 81.632 906.373 86.2844L906.115 95.7507L896.346 86.8282C893.583 84.2974 890.819 81.7612 888.013 79.3543C885.411 77.1088 882.793 74.7719 880.196 72.4511L877.475 70.0226C876.088 68.7733 874.68 67.5402 873.271 66.3018C869.986 63.4156 866.589 60.4324 863.449 57.3147C863.277 57.1262 863.056 56.9378 862.831 56.7439L858.771 53.2223L854.562 57.4062L855.411 58.3055C858.702 61.7679 861.669 65.0202 864.642 68.4341C864.927 68.7572 865.218 69.1018 865.535 69.3333C866.562 70.1195 867.728 71.4765 868.841 72.7688C871.04 75.3534 873.164 77.4858 875.561 79.8927L876.121 80.4366C876.825 81.1151 877.556 81.8258 878.282 82.7574C880.556 85.6974 883.309 88.6752 885.97 91.5506L897.604 104.194C898.05 104.716 898.48 105.201 898.959 105.702C898.325 105.712 897.728 105.745 897.158 105.815L886.572 106.337C883.594 106.493 880.432 106.655 877.475 106.682C874.712 106.698 872.019 106.725 869.438 106.897C865.309 107.166 861.126 107.306 856.949 107.446L853.143 107.586L852.272 107.516C850.175 107.301 847.616 107.177 845.449 107.199C842.745 107.279 840.234 107.107 837.686 106.994C836.046 106.924 834.417 106.854 832.772 106.816C831.551 106.784 830.331 106.741 829.105 106.698C826.014 106.579 822.826 106.455 819.745 106.633C818.417 106.714 816.686 106.665 814.982 106.509C812.455 106.256 810.095 106.294 808.568 106.375C807.186 106.455 805.917 106.412 804.315 106.332L801.342 106.202V114.909L804.326 114.78C805.912 114.689 807.186 114.656 808.568 114.742C810.106 114.829 812.46 114.866 814.971 114.608C816.686 114.446 818.423 114.398 819.756 114.484C822.794 114.646 825.971 114.533 829.035 114.419C830.283 114.376 831.53 114.328 832.777 114.301C834.39 114.263 835.987 114.193 837.589 114.123C840.18 114.01 842.809 113.865 845.449 113.919C847.594 113.902 850.239 113.811 852.261 113.596L852.987 113.531L856.89 113.666C861.089 113.806 865.288 113.946 869.438 114.22C872.088 114.398 874.863 114.425 877.47 114.436C880.336 114.452 883.395 114.613 886.287 114.759L897.12 115.297C897.717 115.362 898.319 115.405 898.959 115.41C898.491 115.9 898.067 116.379 897.626 116.896L885.965 129.577C883.309 132.453 880.556 135.425 878.282 138.36C877.556 139.291 876.825 140.002 876.121 140.681L875.411 141.381C873.164 143.631 871.045 145.764 868.701 148.515C867.691 149.689 866.54 151.019 865.556 151.773C865.212 152.026 864.911 152.376 864.481 152.882C861.658 156.119 858.696 159.365 855.417 162.817L854.567 163.711L858.777 167.906L862.874 164.346C863.083 164.169 863.288 163.991 863.422 163.846C866.594 160.701 869.986 157.718 873.266 154.832C874.674 153.593 876.083 152.355 877.47 151.111L879.906 148.935C882.599 146.534 885.309 144.105 888.013 141.779C890.749 139.426 893.454 136.949 896.153 134.472L906.109 125.377L906.367 134.838C906.497 139.501 906.636 144.175 906.868 148.817C907.023 152.188 907.104 155.559 907.179 158.924C907.255 162.214 907.33 165.499 907.48 168.799C907.803 175.773 907.991 182.907 908.174 189.811L908.975 221.462H916.335L917.136 189.811C917.319 182.907 917.507 175.773 917.83 168.799C917.98 165.504 918.055 162.214 918.131 158.924C918.206 155.559 918.287 152.193 918.443 148.822C918.674 144.181 918.814 139.501 918.943 134.844L919.201 125.383L929.157 134.477C931.862 136.954 934.561 139.426 937.297 141.784C940.001 144.111 942.711 146.534 945.404 148.941L947.835 151.116C949.227 152.365 950.636 153.598 952.044 154.842C955.324 157.729 958.716 160.706 961.867 163.835C962.033 164.012 962.248 164.201 962.463 164.384L966.533 167.922L970.743 163.727L969.893 162.833C966.63 159.398 963.662 156.151 960.711 152.769C960.415 152.414 960.103 152.048 959.77 151.805C958.764 151.041 957.619 149.705 956.463 148.375C954.243 145.753 952.093 143.604 949.743 141.251L949.173 140.691C948.474 140.013 947.743 139.307 947.028 138.381C944.754 135.452 942.007 132.48 939.345 129.604L927.701 116.945C927.244 116.423 926.813 115.933 926.346 115.443C926.98 115.432 927.577 115.399 928.147 115.329L939.017 114.791C941.91 114.646 944.969 114.484 947.829 114.468C950.442 114.457 953.216 114.43 955.867 114.252C960.012 113.978 964.211 113.838 968.41 113.703L972.162 113.563L973.028 113.633C975.065 113.849 977.721 113.946 979.856 113.956C982.554 113.902 985.13 114.048 987.716 114.161C989.323 114.231 990.92 114.301 992.533 114.339C993.775 114.371 995.022 114.414 996.269 114.457C999.328 114.57 1002.51 114.683 1005.56 114.522C1006.87 114.436 1008.62 114.489 1010.32 114.646C1012.83 114.899 1015.19 114.861 1016.74 114.78C1018.12 114.705 1019.38 114.737 1020.98 114.818L1023.96 114.947V106.24L1020.97 106.369L1021.01 106.337Z" fill="#101011"/>
<path d="M64.0959 112.551V115.852C64.0959 115.852 67.9883 115.254 71.585 116.751L16.4623 292.578L2.38184 300.38H34.4405L20.059 293.175L39.8329 229.27H112.928L132.702 287.478C136.299 297.381 119.821 297.381 119.821 297.381L120.719 300.38H148.88L84.1709 112.551H64.1013H64.0959ZM41.0264 225.969L74.2785 118.253C74.8753 118.851 75.1764 119.454 75.7785 120.052L111.73 225.969H41.0264Z" fill="#101011"/>
<path d="M288.167 288.98V126.653C288.167 116.751 302.548 116.751 302.548 116.751V113.752H261.802V116.751C261.802 116.751 276.183 116.751 276.183 126.653V204.667H179.717V126.653C179.717 116.751 194.093 116.751 194.093 116.751V113.752H153.352V116.751C153.352 116.751 167.733 116.751 167.733 126.653V288.98C167.733 296.783 152.755 298.28 152.755 298.28V301.279H194.695V298.28C194.695 298.28 179.717 296.783 179.717 288.98V207.666H276.183V288.98C276.183 296.783 261.205 298.28 261.205 298.28V301.279H303.145V298.28C303.145 298.28 288.167 296.783 288.167 288.98Z" fill="#101011"/>
<path d="M556.26 112.551V115.852C556.26 115.852 560.152 115.254 563.749 116.751L508.626 292.578L500.53 297.063C496.406 296.32 487.67 294.042 487.67 288.081V142.56C487.67 118.856 502.648 117.354 502.648 117.354V112.853H484.675L407.983 294.085L331.29 112.853H318.108L327.097 133.557V288.081C327.097 295.878 312.119 297.381 312.119 297.381V300.38H329.796V139.851L397.499 300.38H410.682L409.784 297.978L475.691 141.951V300.38H526.605L512.223 293.175L531.997 229.27H605.093L624.866 287.478C628.463 297.381 611.985 297.381 611.985 297.381L612.883 300.38H641.044L576.335 112.551H556.265H556.26ZM533.19 225.969L566.443 118.253C567.039 118.851 567.34 119.454 567.943 120.052L603.894 225.969H533.19Z" fill="#101011"/>
<path d="M715.919 223.869C791.713 219.071 797.106 112.852 718.016 112.852H645.517V115.857C645.517 115.857 659.898 115.857 659.898 125.76V288.087C659.898 295.884 644.92 297.386 644.92 297.386V300.385H660.199L671.882 291.98V224.17H710.225L760.854 288.081C765.945 294.683 750.37 297.381 750.37 297.381V300.38H785.719L730.295 230.169L715.913 223.869H715.919ZM671.882 220.87V115.857H718.016C781.826 115.857 769.542 220.87 710.231 220.87H671.887H671.882Z" fill="#101011"/>
</g>
<defs>
<clipPath id="clip0_64_2">
<rect width="1024" height="301" fill="white"/>
</clipPath>
</defs>
</svg>
