<?xml version="1.0" encoding="UTF-8"?>
<svg id="Layer_1" data-name="Layer 1" xmlns="http://www.w3.org/2000/svg" viewBox="0 0 1904.67 559.43">
  <defs>
    <style>
      .cls-1 {
        fill: #e6ddd7;
      }
    </style>
  </defs>
  <path class="cls-1" d="M1899.11,197.48c-2.94.17-5.29.24-7.89.08-2.85-.15-7.22-.22-11.9.25-3.2.29-6.45.38-8.9.23-5.71-.31-11.65-.1-17.41.12-2.28.08-4.55.17-6.82.22-3.05.07-6.09.2-9.14.33-4.76.21-9.67.51-14.43.38-3.97-.02-8.81.19-12.71.59l-1.32.12-7.38-.26c-7.77-.26-15.56-.51-23.22-1.02-4.8-.32-9.8-.37-14.94-.4-5.5-.04-11.39-.35-16.93-.64l-19.63-.97c-1.11-.12-2.23-.2-3.41-.21.87-.91,1.65-1.81,2.48-2.76l21.67-23.52c4.95-5.35,10.08-10.88,14.3-16.33,1.33-1.72,2.68-3.02,3.99-4.28l1.21-1.19c4.23-4.23,8.22-8.21,12.5-13.25,1.92-2.23,4.09-4.75,5.97-6.18.64-.47,1.2-1.12,1.99-2.05,5.26-6.02,10.78-12.05,16.87-18.45l1.58-1.67-7.83-7.77-7.49,6.5c-.43.36-.87.74-1.15,1.05-5.9,5.84-12.22,11.38-18.33,16.75-2.62,2.29-5.23,4.59-7.81,6.9l-5.07,4.51c-4.83,4.31-9.7,8.65-14.54,12.82-5.22,4.47-10.36,9.18-15.5,13.88l-18.17,16.57-.48-17.58c-.24-8.65-.5-17.33-.93-25.96-.29-6.26-.44-12.52-.58-18.77-.14-6.11-.28-12.21-.56-18.34-.6-12.95-.95-26.2-1.29-39.02l-1.49-58.78h-13.69l-1.49,58.78c-.34,12.82-.69,26.07-1.29,39.02-.28,6.12-.42,12.23-.56,18.34-.14,6.25-.29,12.5-.58,18.76-.43,8.63-.69,17.32-.93,25.96l-.48,17.58-18.17-16.57c-5.14-4.7-10.28-9.41-15.5-13.88-4.84-4.17-9.71-8.51-14.54-12.82l-5.06-4.51c-2.58-2.32-5.2-4.61-7.82-6.91-6.11-5.36-12.43-10.9-18.27-16.69-.32-.35-.73-.7-1.15-1.06l-7.55-6.54-7.83,7.77,1.58,1.67c6.12,6.43,11.64,12.47,17.17,18.81.53.6,1.07,1.24,1.66,1.67,1.91,1.46,4.08,3.98,6.15,6.38,4.09,4.8,8.04,8.76,12.5,13.23l1.04,1.01c1.31,1.26,2.67,2.58,4.02,4.31,4.23,5.46,9.35,10.99,14.3,16.33l21.64,23.48c.83.97,1.63,1.87,2.52,2.8-1.18.02-2.29.08-3.35.21l-19.69.97c-5.54.29-11.42.59-16.92.64-5.14.03-10.15.08-14.95.4-7.68.5-15.46.76-23.23,1.02l-7.08.26-1.62-.13c-3.9-.4-8.66-.63-12.69-.59-5.03.15-9.7-.17-14.44-.38-3.05-.13-6.08-.26-9.14-.33-2.27-.06-4.54-.14-6.82-.22-5.75-.22-11.68-.45-17.41-.12-2.47.15-5.69.06-8.86-.23-4.7-.47-9.09-.4-11.93-.25-2.57.15-4.93.07-7.91-.08l-5.53-.24v16.17l5.55-.24c2.95-.17,5.32-.23,7.89-.07,2.86.16,7.24.23,11.91-.25,3.19-.3,6.42-.39,8.9-.23,5.65.3,11.56.09,17.26-.12,2.32-.08,4.64-.17,6.96-.22,3-.07,5.97-.2,8.95-.33,4.82-.21,9.71-.48,14.62-.38,3.99-.03,8.91-.2,12.67-.6l1.35-.12,7.26.25c7.81.26,15.62.52,23.34,1.03,4.93.33,10.09.38,14.94.4,5.33.03,11.02.33,16.4.6l20.15,1c1.11.12,2.23.2,3.42.21-.87.91-1.66,1.8-2.48,2.76l-21.69,23.55c-4.94,5.34-10.06,10.86-14.29,16.31-1.35,1.73-2.71,3.05-4.02,4.31l-1.32,1.3c-4.18,4.18-8.12,8.14-12.48,13.25-1.88,2.18-4.02,4.65-5.85,6.05-.64.47-1.2,1.12-2,2.06-5.25,6.01-10.76,12.04-16.86,18.45l-1.58,1.66,7.83,7.79,7.62-6.61c.39-.33.77-.66,1.02-.93,5.9-5.84,12.21-11.38,18.31-16.74,2.62-2.3,5.24-4.6,7.82-6.91l4.53-4.04c5.01-4.46,10.05-8.97,15.08-13.29,5.09-4.37,10.12-8.97,15.14-13.57l18.52-16.89.48,17.57c.24,8.66.5,17.34.93,25.96.29,6.26.44,12.52.58,18.77.14,6.11.28,12.21.56,18.34.6,12.95.95,26.2,1.29,39.02l1.49,58.78h13.69l1.49-58.78c.34-12.82.69-26.07,1.29-39.02.28-6.12.42-12.23.56-18.34.14-6.25.29-12.5.58-18.76.43-8.62.69-17.31.93-25.96l.48-17.57,18.52,16.89c5.03,4.6,10.05,9.19,15.14,13.57,5.03,4.32,10.07,8.82,15.08,13.29l4.52,4.04c2.59,2.32,5.21,4.61,7.83,6.92,6.1,5.36,12.41,10.89,18.27,16.7.31.33.71.68,1.11,1.02l7.57,6.57,7.83-7.79-1.58-1.66c-6.07-6.38-11.59-12.41-17.08-18.69-.55-.66-1.13-1.34-1.75-1.79-1.87-1.42-4-3.9-6.15-6.37-4.13-4.87-8.13-8.86-12.5-13.23l-1.06-1.04c-1.3-1.26-2.66-2.57-3.99-4.29-4.23-5.44-9.34-10.96-14.29-16.3l-21.66-23.51c-.85-.97-1.65-1.88-2.52-2.79,1.18-.02,2.29-.08,3.35-.21l20.22-1c5.38-.27,11.07-.57,16.39-.6,4.86-.02,10.02-.07,14.95-.4,7.71-.51,15.52-.77,23.33-1.02l6.98-.26,1.61.13c3.79.4,8.73.58,12.7.6,5.02-.1,9.81.17,14.62.38,2.99.13,5.96.26,8.96.33,2.31.06,4.63.14,6.95.22,5.69.21,11.6.42,17.28.12,2.43-.16,5.69-.06,8.86.23,4.67.47,9.05.4,11.93.25,2.57-.14,4.91-.08,7.9.07l5.53.24v-16.17l-5.55.24Z"/>
  <path class="cls-1" d="M119.22,209.02v6.13s7.24-1.11,13.93,1.67L30.62,543.35l-26.19,14.49h59.63l-26.75-13.38,36.78-118.68h135.96l36.78,108.1c6.69,18.39-23.96,18.39-23.96,18.39l1.67,5.57h52.38l-120.36-348.82h-37.33ZM76.31,419.65l61.85-200.04c1.11,1.11,1.67,2.23,2.79,3.34l66.87,196.7H76.31Z"/>
  <path class="cls-1" d="M536,536.67V235.21c0-18.39,26.75-18.39,26.75-18.39v-5.57h-75.79v5.57s26.75,0,26.75,18.39v144.88h-179.43v-144.88c0-18.39,26.74-18.39,26.74-18.39v-5.57h-75.78v5.57s26.75,0,26.75,18.39v301.46c0,14.49-27.86,17.27-27.86,17.27v5.57h78.01v-5.57s-27.86-2.78-27.86-17.27v-151.01h179.43v151.01c0,14.49-27.86,17.27-27.86,17.27v5.57h78.01v-5.57s-27.86-2.78-27.86-17.27Z"/>
  <path class="cls-1" d="M1034.66,209.02v6.13s7.24-1.11,13.93,1.67l-102.53,326.53-15.06,8.33c-7.67-1.38-23.92-5.61-23.92-16.68v-270.25c0-44.02,27.86-46.81,27.86-46.81v-8.36h-33.43l-142.65,336.57-142.65-336.57h-24.52l16.72,38.45v286.97c0,14.48-27.86,17.27-27.86,17.27v5.57h32.88v-298.12l125.93,298.12h24.52l-1.67-4.46,122.59-289.76v294.22h94.7l-26.75-13.38,36.78-118.68h135.96l36.78,108.1c6.69,18.39-23.96,18.39-23.96,18.39l1.67,5.57h52.38l-120.36-348.82h-37.33ZM991.75,419.65l61.85-200.04c1.11,1.11,1.67,2.23,2.79,3.34l66.87,196.7h-131.51Z"/>
  <path class="cls-1" d="M1331.63,415.75c140.98-8.91,151.01-206.17,3.9-206.17h-134.85v5.58s26.75,0,26.75,18.39v301.46c0,14.48-27.86,17.27-27.86,17.27v5.57h28.42l21.73-15.61v-125.93h71.32l94.17,118.69c9.47,12.26-19.5,17.27-19.5,17.27v5.57h65.75l-103.09-130.39-26.75-11.7ZM1249.72,410.18v-195.02h85.81c118.69,0,95.84,195.02-14.48,195.02h-71.32Z"/>
</svg>