<svg width="19" height="16" viewBox="0 0 19 16" fill="none" xmlns="http://www.w3.org/2000/svg">
<path d="M8.09962 15.4999C7.99962 15.4999 7.89961 15.4999 7.79961 15.3999L0.999609 8.59991C0.799609 8.39991 0.799609 8.09989 0.999609 7.89989L8.09962 0.799902C8.29962 0.599902 8.59961 0.599902 8.79961 0.799902C8.99961 0.999902 8.99961 1.2999 8.79961 1.4999L1.99961 8.2999L8.49961 14.7999C8.69961 14.9999 8.69961 15.2999 8.49961 15.4999C8.29961 15.6999 8.29961 15.5999 8.19961 15.5999L8.09962 15.4999Z" fill="#101011" stroke="black" stroke-width="0.6" stroke-miterlimit="10"/>
<path d="M17.4994 8.69971H1.39941C1.09941 8.69971 0.899414 8.49971 0.899414 8.19971C0.899414 7.89971 1.09941 7.69971 1.39941 7.69971H17.4994C17.7994 7.69971 17.9994 7.89971 17.9994 8.19971C17.9994 8.49971 17.7994 8.69971 17.4994 8.69971Z" fill="#101011" stroke="black" stroke-width="0.6" stroke-miterlimit="10"/>
</svg>
