<svg width="18" height="16" viewBox="0 0 18 16" fill="none" xmlns="http://www.w3.org/2000/svg">
<path d="M9.90018 15.4998C9.80018 15.4998 9.7002 15.4998 9.6002 15.3998C9.4002 15.1998 9.4002 14.8998 9.6002 14.6998L16.4002 7.8998L9.90018 1.3998C9.70018 1.1998 9.70018 0.899805 9.90018 0.699805C10.1002 0.499805 10.4002 0.499805 10.6002 0.699805L17.4002 7.49981C17.6002 7.69981 17.6002 7.9998 17.4002 8.1998L10.3002 15.2998C10.3002 15.2998 10.1002 15.3998 10.0002 15.3998L9.90018 15.4998Z" fill="#101011" stroke="black" stroke-width="0.6" stroke-miterlimit="10"/>
<path d="M17.0004 8.3999H0.900391C0.600391 8.3999 0.400391 8.1999 0.400391 7.8999C0.400391 7.5999 0.600391 7.3999 0.900391 7.3999H17.0004C17.3004 7.3999 17.5004 7.5999 17.5004 7.8999C17.5004 8.1999 17.3004 8.3999 17.0004 8.3999Z" fill="#101011" stroke="black" stroke-width="0.6" stroke-miterlimit="10"/>
</svg>
