<svg width="30" height="25" viewBox="0 0 30 25" fill="none" xmlns="http://www.w3.org/2000/svg">
<path d="M25.1001 16.8H11.5C11.3 16.8 11.1001 16.7 11.1001 16.5L6.5 2H1.5C1.2 2 1 1.8 1 1.5C1 1.2 1.2 1 1.5 1H6.80005C7.00005 1 7.20007 1.09999 7.20007 1.29999L11.8 15.8H24.7001L27.6001 6.09998H14.9C14.6 6.09998 14.4 5.89998 14.4 5.59998C14.4 5.29998 14.6 5.09998 14.9 5.09998H28.3C28.4 5.09998 28.6001 5.09999 28.7001 5.29999C28.7001 5.39999 28.8001 5.59998 28.7001 5.69998L25.6001 16.3C25.6001 16.5 25.4001 16.6 25.2001 16.6L25.1001 16.8Z" fill="#101011" stroke="black" stroke-width="0.6" stroke-miterlimit="10"/>
<path d="M13.0996 24.7002C11.3996 24.7002 10.0996 23.3002 10.0996 21.7002C10.0996 20.1002 11.4996 18.7002 13.0996 18.7002C14.6996 18.7002 16.0996 20.1002 16.0996 21.7002C16.0996 23.3002 14.6996 24.7002 13.0996 24.7002ZM13.0996 19.6002C11.8996 19.6002 10.9995 20.5002 10.9995 21.7002C10.9995 22.9002 11.9996 23.8002 13.0996 23.8002C14.1996 23.8002 15.1996 22.9002 15.1996 21.7002C15.1996 20.5002 14.1996 19.6002 13.0996 19.6002Z" fill="#101011" stroke="black" stroke-width="0.6" stroke-miterlimit="10"/>
<path d="M24 24.7002C22.3 24.7002 21 23.3002 21 21.7002C21 20.1002 22.4 18.7002 24 18.7002C25.6 18.7002 27 20.1002 27 21.7002C27 23.3002 25.6 24.7002 24 24.7002ZM24 19.6002C22.8 19.6002 21.9 20.5002 21.9 21.7002C21.9 22.9002 22.9 23.8002 24 23.8002C25.1 23.8002 26.1001 22.9002 26.1001 21.7002C26.1001 20.5002 25.1 19.6002 24 19.6002Z" fill="#101011" stroke="black" stroke-width="0.6" stroke-miterlimit="10"/>
</svg>
