<svg width="34" height="30" viewBox="0 0 34 30" fill="none" xmlns="http://www.w3.org/2000/svg">
<path d="M28.5 17.275C28.4 17.275 28.3 17.275 28.2 17.175C28.0988 17.0738 28.0488 16.947 28.05 16.8205C28.0512 16.697 28.1012 16.5738 28.2 16.475L29.7 14.975C31.2 13.575 32 11.575 32 9.57501C32 7.57501 31.2 5.57501 29.7 4.17501C26.7 1.17501 21.8 1.17501 18.8 4.17501L17.3351 5.54221L17.3 5.57501C17.1 5.77501 16.8 5.77501 16.6 5.57501C16.4 5.37501 16.4 5.07501 16.6 4.87501L18.1 3.475C21.5 0.175 27 0.175 30.3 3.475C31.9 5.075 32.8 7.275 32.8 9.475C32.8 11.675 31.9 13.875 30.3 15.475L28.8 16.975C28.8 16.975 28.6 17.075 28.5 17.075V17.275Z" fill="#101011"/>
<path d="M5.3 17.275C5.2 17.275 5.1 17.275 5 17.175L3.5 15.675C1.9 14.075 1 11.875 1 9.67501C1 7.47501 1.9 5.27501 3.5 3.67501C6.9 0.375012 12.4 0.375012 15.7 3.67501L17.2 5.07501C17.3315 5.20647 17.3765 5.38113 17.3351 5.54221C17.3136 5.62618 17.2685 5.70647 17.2 5.775C17 5.975 16.7 5.975 16.5 5.775L15 4.37501C12 1.37501 7.10001 1.37501 4.10001 4.37501C2.60001 5.77501 1.8 7.775 1.8 9.775C1.8 11.775 2.60001 13.775 4.10001 15.175L5.35001 16.425L5.60001 16.675C5.80001 16.875 5.80001 17.175 5.60001 17.375C5.60001 17.375 5.4 17.475 5.3 17.475V17.275Z" fill="#101011"/>
<path d="M16.9 28.775C16.8 28.775 16.7 28.775 16.6 28.675L5.00001 17.275C4.80001 17.075 4.80001 16.775 5.00001 16.575C5.10001 16.475 5.22501 16.425 5.35001 16.425C5.47501 16.425 5.60001 16.475 5.7 16.575L17 27.675L28.05 16.8205L28.3 16.575C28.5 16.375 28.8 16.375 29 16.575C29.2 16.775 29.2 17.075 29 17.275L17.4 28.675C17.4 28.675 17.2 28.775 17.1 28.775H16.9Z" fill="#101011"/>
<path d="M28.05 16.8205C28.0512 16.697 28.1012 16.5738 28.2 16.475L29.7 14.975C31.2 13.575 32 11.575 32 9.57501C32 7.57501 31.2 5.57501 29.7 4.17501C26.7 1.17501 21.8 1.17501 18.8 4.17501L17.3351 5.54221C17.3136 5.62618 17.2685 5.70647 17.2 5.775C17 5.975 16.7 5.975 16.5 5.775L15 4.37501C12 1.37501 7.10001 1.37501 4.10001 4.37501C2.60001 5.77501 1.8 7.775 1.8 9.775C1.8 11.775 2.60001 13.775 4.10001 15.175L5.35001 16.425C5.47501 16.425 5.60001 16.475 5.7 16.575L17 27.675L28.05 16.8205Z" fill="#101011"/>
<path d="M28.05 16.8205C28.0512 16.697 28.1012 16.5738 28.2 16.475L29.7 14.975C31.2 13.575 32 11.575 32 9.57501C32 7.57501 31.2 5.57501 29.7 4.17501C26.7 1.17501 21.8 1.17501 18.8 4.17501L17.3351 5.54221M28.05 16.8205L17 27.675L5.7 16.575C5.60001 16.475 5.47501 16.425 5.35001 16.425M28.05 16.8205L28.3 16.575C28.5 16.375 28.8 16.375 29 16.575C29.2 16.775 29.2 17.075 29 17.275L17.4 28.675C17.4 28.675 17.2 28.775 17.1 28.775H16.9C16.8 28.775 16.7 28.775 16.6 28.675L5.00001 17.275C4.80001 17.075 4.80001 16.775 5.00001 16.575C5.10001 16.475 5.22501 16.425 5.35001 16.425M28.05 16.8205C28.0488 16.947 28.0988 17.0738 28.2 17.175C28.3 17.275 28.4 17.275 28.5 17.275V17.075C28.6 17.075 28.8 16.975 28.8 16.975L30.3 15.475C31.9 13.875 32.8 11.675 32.8 9.475C32.8 7.275 31.9 5.075 30.3 3.475C27 0.175 21.5 0.175 18.1 3.475L16.6 4.87501C16.4 5.07501 16.4 5.37501 16.6 5.57501C16.8 5.77501 17.1 5.77501 17.3 5.57501L17.3351 5.54221M17.3351 5.54221C17.3136 5.62618 17.2685 5.70647 17.2 5.775C17 5.975 16.7 5.975 16.5 5.775L15 4.37501C12 1.37501 7.10001 1.37501 4.10001 4.37501C2.60001 5.77501 1.8 7.775 1.8 9.775C1.8 11.775 2.60001 13.775 4.10001 15.175L5.35001 16.425M17.3351 5.54221C17.3765 5.38113 17.3315 5.20647 17.2 5.07501L15.7 3.67501C12.4 0.375012 6.9 0.375012 3.5 3.67501C1.9 5.27501 1 7.47501 1 9.67501C1 11.875 1.9 14.075 3.5 15.675L5 17.175C5.1 17.275 5.2 17.275 5.3 17.275V17.475C5.4 17.475 5.60001 17.375 5.60001 17.375C5.80001 17.175 5.80001 16.875 5.60001 16.675L5.35001 16.425" stroke="black" stroke-width="0.6" stroke-miterlimit="10"/>
</svg>
