<svg width="33" height="29" viewBox="0 0 33 29" fill="none" xmlns="http://www.w3.org/2000/svg">
<path d="M28.0002 16.6998C27.9002 16.6998 27.8002 16.6998 27.7002 16.5998C27.5002 16.3998 27.5002 16.0998 27.7002 15.8998L29.2002 14.3998C30.7002 12.9998 31.5002 10.9998 31.5002 8.99981C31.5002 6.99981 30.7002 4.99982 29.2002 3.59982C26.2002 0.599817 21.3002 0.599817 18.3002 3.59982L16.8002 4.99981C16.6002 5.19981 16.3002 5.19981 16.1002 4.99981C15.9002 4.79981 15.9002 4.49981 16.1002 4.29981L17.6002 2.8998C21.0002 -0.400195 26.5002 -0.400195 29.8002 2.8998C31.4002 4.4998 32.3002 6.69981 32.3002 8.89981C32.3002 11.0998 31.4002 13.2998 29.8002 14.8998L28.3002 16.3998C28.3002 16.3998 28.1002 16.4998 28.0002 16.4998V16.6998Z" fill="#101011" stroke="black" stroke-width="0.6" stroke-miterlimit="10"/>
<path d="M4.8 16.7C4.7 16.7 4.6 16.7 4.5 16.6L3 15.1C1.4 13.5 0.5 11.3 0.5 9.1C0.5 6.9 1.4 4.7 3 3.1C6.4 -0.2 11.9 -0.2 15.2 3.1L16.7 4.49999C16.9 4.69999 16.9 4.99999 16.7 5.19999C16.5 5.39999 16.2 5.39999 16 5.19999L14.5 3.8C11.5 0.799997 6.60001 0.799997 3.60001 3.8C2.10001 5.2 1.3 7.19999 1.3 9.19999C1.3 11.2 2.10001 13.2 3.60001 14.6L5.10001 16.1C5.30001 16.3 5.30001 16.6 5.10001 16.8C5.10001 16.8 4.9 16.9 4.8 16.9V16.7Z" fill="#101011" stroke="black" stroke-width="0.6" stroke-miterlimit="10"/>
<path d="M16.3996 28.1996C16.2996 28.1996 16.1996 28.1996 16.0996 28.0996L4.49961 16.6996C4.29961 16.4996 4.29961 16.1996 4.49961 15.9996C4.69961 15.7996 4.99961 15.7996 5.19961 15.9996L16.4996 27.0996L27.7996 15.9996C27.9996 15.7996 28.2996 15.7996 28.4996 15.9996C28.6996 16.1996 28.6996 16.4996 28.4996 16.6996L16.8996 28.0996C16.8996 28.0996 16.6996 28.1996 16.5996 28.1996H16.3996Z" fill="#101011" stroke="black" stroke-width="0.6" stroke-miterlimit="10"/>
</svg>
