<svg width="21" height="17" viewBox="0 0 21 17" fill="none" xmlns="http://www.w3.org/2000/svg">
<path d="M19.8004 1.7998H1.40039C1.10039 1.7998 0.900391 1.5998 0.900391 1.2998C0.900391 0.999805 1.10039 0.799805 1.40039 0.799805H19.8004C20.1004 0.799805 20.3004 0.999805 20.3004 1.2998C20.3004 1.5998 20.1004 1.7998 19.8004 1.7998Z" fill="#101011" stroke="black" stroke-width="0.6" stroke-miterlimit="10"/>
<path d="M19.8004 8.8999H1.40039C1.10039 8.8999 0.900391 8.6999 0.900391 8.3999C0.900391 8.0999 1.10039 7.8999 1.40039 7.8999H19.8004C20.1004 7.8999 20.3004 8.0999 20.3004 8.3999C20.3004 8.6999 20.1004 8.8999 19.8004 8.8999Z" fill="#101011" stroke="black" stroke-width="0.6" stroke-miterlimit="10"/>
<path d="M19.8004 15.8999H1.40039C1.10039 15.8999 0.900391 15.6999 0.900391 15.3999C0.900391 15.0999 1.10039 14.8999 1.40039 14.8999H19.8004C20.1004 14.8999 20.3004 15.0999 20.3004 15.3999C20.3004 15.6999 20.1004 15.8999 19.8004 15.8999Z" fill="#101011" stroke="black" stroke-width="0.6" stroke-miterlimit="10"/>
</svg>
