<svg width="29" height="28" viewBox="0 0 29 28" fill="none" xmlns="http://www.w3.org/2000/svg">
<path d="M24.5992 21.8C24.2992 21.8 24.0992 21.6 24.0992 21.3V11C24.0992 5.7 19.6992 1.40002 14.3992 1.40002C9.09922 1.40002 4.69922 5.7 4.69922 11V21.3C4.69922 21.6 4.49922 21.8 4.19922 21.8C3.89922 21.8 3.69922 21.6 3.69922 21.3V11C3.69922 5.2 8.49922 0.5 14.2992 0.5C20.0992 0.5 24.8992 5.2 24.8992 11V21.3C24.8992 21.6 24.6992 21.8 24.3992 21.8H24.5992Z" fill="#101011" stroke="black" stroke-width="0.6" stroke-miterlimit="10"/>
<path d="M27.7996 21.7998H1.09961C0.799609 21.7998 0.599609 21.5998 0.599609 21.2998C0.599609 20.9998 0.799609 20.7998 1.09961 20.7998H27.7996C28.0996 20.7998 28.2996 20.9998 28.2996 21.2998C28.2996 21.5998 28.0996 21.7998 27.7996 21.7998Z" fill="#101011" stroke="black" stroke-width="0.6" stroke-miterlimit="10"/>
<path d="M14.3996 27.5C12.5996 27.5 11.0996 26 11.0996 24.2C11.0996 22.4 11.2996 23.7 11.5996 23.7C11.8996 23.7 12.0996 23.9 12.0996 24.2C12.0996 25.5 13.1996 26.6 14.4996 26.6C15.7996 26.6 16.8996 25.5 16.8996 24.2C16.8996 22.9 17.0996 23.7 17.3996 23.7C17.6996 23.7 17.8996 23.9 17.8996 24.2C17.8996 26 16.3996 27.5 14.5996 27.5H14.3996Z" fill="#101011" stroke="black" stroke-width="0.6" stroke-miterlimit="10"/>
</svg>
