<svg width="30" height="29" viewBox="0 0 30 29" fill="none" xmlns="http://www.w3.org/2000/svg">
<path d="M13.2 25.0999C10.1 25.0999 6.90004 23.8999 4.60004 21.4999C2.30004 19.1999 1 16.1999 1 12.8999C1 9.69988 2.2 6.5999 4.5 4.2999C9.2 -0.400098 16.9 -0.400098 21.6 4.2999C23.9 6.5999 25.2 9.59988 25.2 12.8999C25.2 16.0999 24 19.1999 21.7 21.4999C19.4 23.7999 16.3 24.9999 13.2 24.9999V25.0999ZM13 1.7999C10.1 1.7999 7.30004 2.89988 5.10004 4.99988C3.00004 7.09988 1.80002 9.89988 1.90002 12.8999C1.90002 15.8999 3.10001 18.6999 5.20001 20.7999C9.60001 25.1999 16.7 25.1999 21 20.7999C23.1 18.6999 24.3 15.8999 24.2 12.8999C24.2 9.89988 23 7.09988 20.9 4.99988C18.7 2.79988 15.8 1.6999 12.9 1.6999L13 1.7999Z" fill="#101011" stroke="black" stroke-width="0.6" stroke-miterlimit="10"/>
<path d="M28.2002 28.5C28.1002 28.5 28.0002 28.5 27.9002 28.4L21.1002 21.6C20.9002 21.4 20.9002 21.1 21.1002 20.9C21.3002 20.7 21.6002 20.7 21.8002 20.9L28.6002 27.7C28.8002 27.9 28.8002 28.2 28.6002 28.4C28.4002 28.6 28.4002 28.5 28.3002 28.5H28.2002Z" fill="#101011" stroke="black" stroke-width="0.6" stroke-miterlimit="10"/>
</svg>
