<svg width="29" height="28" viewBox="0 0 29 28" fill="none" xmlns="http://www.w3.org/2000/svg">
<path d="M23.0414 27C23.0414 27 22.9414 27 22.8414 27L14.8414 22.8L6.84142 27C6.64142 27 6.54142 27 6.34142 27C6.24142 26.9 6.14143 26.7 6.14143 26.5L7.64143 17.7L1.14143 11.4C1.04143 11.3 0.94142 11.1 1.04142 10.9C1.14142 10.7 1.24143 10.6 1.44143 10.6L10.4414 9.29999L14.4414 1.29999C14.4414 1.09999 14.6414 1 14.8414 1C15.0414 1 15.1414 0.999988 15.2414 1.29999L19.2414 9.29999L28.2414 10.6C28.4414 10.6 28.5414 10.7 28.6414 10.9C28.7414 11.1 28.6414 11.3 28.5414 11.4L22.0414 17.7L23.5414 26.5C23.5414 26.7 23.5414 26.8 23.3414 27C23.3414 27 23.1414 27 23.0414 27ZM2.34142 11.4L8.34142 17.2C8.44142 17.3 8.54143 17.5 8.44143 17.6L7.04142 25.8L14.4414 21.9C14.5414 21.9 14.7414 21.9 14.8414 21.9L22.2414 25.8L20.8414 17.6C20.8414 17.4 20.8414 17.3 20.9414 17.2L26.9414 11.4L18.6414 10.2C18.5414 10.2 18.3414 10.1 18.3414 9.90002L14.6414 2.5L10.9414 9.90002C10.9414 10 10.7414 10.1 10.6414 10.2L2.34142 11.4Z" fill="#101011" stroke="black" stroke-width="0.6" stroke-miterlimit="10"/>
</svg>
